<svg width="30" height="30" viewBox="0 0 30 30" fill="none" xmlns="http://www.w3.org/2000/svg">
<g clip-path="url(#clip0_61_500)">
<g clip-path="url(#clip1_61_500)">
<path d="M29.2339 31.0001C30.2091 31.0001 31 30.2094 31 29.234V0.766125C31 -0.209375 30.2091 -1 29.2339 -1H0.766125C-0.2095 -1 -1 -0.209375 -1 0.766125V29.234C-1 30.2094 -0.2095 31.0001 0.766125 31.0001H29.2339Z" fill="#395185"/>
<path d="M16.4994 27.0646V15.7997H20.2806L20.8467 11.4097H16.4994V8.60668C16.4994 7.33562 16.8524 6.46943 18.6752 6.46943L20.9999 6.4684V2.54195C20.5977 2.48843 19.2177 2.3689 17.6124 2.3689C14.2606 2.3689 11.9659 4.41479 11.9659 8.17204V11.4097H8.17505V15.7997H11.9659V27.0646H16.4994Z" fill="white"/>
</g>
</g>
<defs>
<clipPath id="clip0_61_500">
<rect width="30" height="30" fill="white"/>
</clipPath>
<clipPath id="clip1_61_500">
<rect width="30" height="30" fill="white"/>
</clipPath>
</defs>
</svg>
