<svg width="30" height="30" viewBox="0 0 30 30" fill="none" xmlns="http://www.w3.org/2000/svg">
<g clip-path="url(#clip0_61_517)">
<g clip-path="url(#clip1_61_517)">
<path d="M-1 1.34705C-1 0.0868568 0.05925 -0.936035 1.365 -0.936035H28.635C29.9412 -0.936035 31 0.0868568 31 1.34705V28.6533C31 29.9138 29.9412 30.936 28.635 30.936H1.365C0.059375 30.936 -1 29.9139 -1 28.6536V1.34667V1.34705Z" fill="#006699"/>
<path d="M8.72431 25.7368V11.3879H3.93581V25.7368H8.72481H8.72431ZM6.33106 9.42916C8.00056 9.42916 9.03994 8.32733 9.03994 6.95036C9.00869 5.54202 8.00056 4.47095 6.36281 4.47095C4.72394 4.47095 3.65356 5.54202 3.65356 6.95024C3.65356 8.32721 4.69256 9.42904 6.29969 9.42904H6.33069L6.33106 9.42916ZM11.3748 25.7368H16.1629V17.7246C16.1629 17.2963 16.1942 16.8669 16.3207 16.561C16.6667 15.7038 17.4546 14.8165 18.7777 14.8165C20.5099 14.8165 21.2033 16.1322 21.2033 18.0614V25.7368H25.9913V17.5096C25.9913 13.1024 23.6293 11.0515 20.4789 11.0515C17.8961 11.0515 16.7617 12.4894 16.1314 13.4687H16.1633V11.3884H11.3751C11.4376 12.7345 11.3747 25.7373 11.3747 25.7373L11.3748 25.7368Z" fill="white"/>
</g>
</g>
<defs>
<clipPath id="clip0_61_517">
<rect width="30" height="30" fill="white"/>
</clipPath>
<clipPath id="clip1_61_517">
<rect width="31.872" height="32" fill="white" transform="translate(-1 -1)"/>
</clipPath>
</defs>
</svg>
