<svg width="30" height="30" viewBox="0 0 30 30" fill="none" xmlns="http://www.w3.org/2000/svg">
<rect width="30" height="30" fill="#55ACEE"/>
<path d="M26 8.17687C25.1909 8.53535 24.3218 8.77758 23.4082 8.88706C24.3402 8.32899 25.0553 7.44338 25.3925 6.38921C24.5205 6.90663 23.5545 7.28254 22.5265 7.48407C21.7029 6.60822 20.5305 6.05981 19.2322 6.05981C16.7401 6.05981 14.719 8.08094 14.719 10.5749C14.7191 10.9205 14.7581 11.2651 14.8353 11.602C11.0827 11.413 7.75838 9.61567 5.53184 6.88531C5.14432 7.55385 4.92143 8.32899 4.92143 9.15449C4.92143 10.7202 5.71888 12.1029 6.929 12.9119C6.21228 12.8891 5.51138 12.6954 4.88462 12.347V12.4052C4.88462 14.592 6.43972 16.4164 8.50543 16.8311C8.11781 16.9357 7.71805 16.9885 7.31657 16.9881C7.03147 16.9883 6.74698 16.9617 6.46687 16.9086C7.04142 18.7011 8.70795 20.0072 10.6835 20.0421C9.13811 21.2532 7.1916 21.975 5.07743 21.975C4.71312 21.975 4.35365 21.9537 4 21.912C5.99791 23.194 8.36979 23.94 10.918 23.94C19.2215 23.94 23.7609 17.0627 23.7609 11.0981C23.7609 10.9043 23.756 10.7086 23.7473 10.5148C24.629 9.87727 25.3944 9.08376 25.998 8.17976L26 8.17687Z" fill="white"/>
</svg>
