<svg width="30" height="30" viewBox="0 0 30 30" fill="none" xmlns="http://www.w3.org/2000/svg">
<rect width="30" height="30" fill="#ED1D24"/>
<g clip-path="url(#clip0_62_543)">
<path d="M12.4969 17.5981V11.3071L18.0806 14.4527L12.4969 17.5981ZM24.9172 9.32761C24.6715 8.41144 23.9476 7.69 23.0284 7.44515C21.3624 7.00017 14.6818 7.00017 14.6818 7.00017C14.6818 7.00017 8.00123 7.00017 6.33518 7.44515C5.41602 7.69 4.69208 8.41144 4.44642 9.32761C4 10.9881 4 14.4526 4 14.4526C4 14.4526 4 17.9171 4.44642 19.5776C4.69208 20.4938 5.41602 21.2152 6.33518 21.4601C8.00123 21.905 14.6818 21.905 14.6818 21.905C14.6818 21.905 21.3624 21.905 23.0284 21.4601C23.9476 21.2152 24.6715 20.4938 24.9172 19.5776C25.3636 17.9171 25.3636 14.4526 25.3636 14.4526C25.3636 14.4526 25.3636 10.9881 24.9172 9.32761Z" fill="white"/>
</g>
<defs>
<clipPath id="clip0_62_543">
<rect width="21.3636" height="15" fill="white" transform="translate(4 7)"/>
</clipPath>
</defs>
</svg>
